<svg width="186" height="49" viewBox="0 0 186 49" fill="none" xmlns="http://www.w3.org/2000/svg">
<path d="M0 38.2212V1.21431H13.3384C15.9493 1.21431 18.3332 1.57379 20.49 2.29273C22.6469 2.97384 24.3686 4.14686 25.6551 5.81179C26.9416 7.47673 27.5849 9.78493 27.5849 12.7364C27.5849 15.4608 26.9795 17.7123 25.7686 19.4907C24.5956 21.2313 23.0063 22.5368 21.0009 23.4071L29.4012 38.2212H20.0359L12.9411 24.8828H8.34358V38.2212H0ZM8.34358 18.242H12.6573C14.852 18.242 16.5169 17.788 17.6521 16.8798C18.8251 15.9338 19.4116 14.5527 19.4116 12.7364C19.4116 10.9201 18.8251 9.65249 17.6521 8.93354C16.5169 8.2146 14.852 7.85512 12.6573 7.85512H8.34358V18.242Z" fill="white"/>
<path d="M49.2101 19.4907L48.302 22.8963H56.1915L55.3401 19.4907C54.8482 17.6366 54.3373 15.669 53.8076 13.5878C53.3157 11.5066 52.8238 9.50113 52.3318 7.57133H52.1048C51.6507 9.53897 51.1777 11.5634 50.6858 13.6445C50.2318 15.6879 49.7399 17.6366 49.2101 19.4907ZM35.815 38.2212L47.3938 1.21431H57.4402L69.019 38.2212H60.1646L57.8942 29.4236H46.5992L44.3288 38.2212H35.815Z" fill="white"/>
<path d="M95.1282 38.9023C91.7605 38.9023 88.6955 38.1834 85.9332 36.7455C83.2088 35.3076 81.033 33.1886 79.4059 30.3885C77.8167 27.5505 77.022 24.0693 77.022 19.9448C77.022 15.8581 77.8356 12.3769 79.4627 9.50113C81.1276 6.5875 83.3223 4.3739 86.0467 2.86032C88.7712 1.30891 91.7794 0.533203 95.0714 0.533203C97.758 0.533203 100.066 1.02512 101.996 2.00894C103.926 2.99276 105.496 4.10902 106.707 5.35772L102.337 10.6931C101.391 9.86061 100.388 9.16058 99.3283 8.59299C98.2688 8.0254 96.9445 7.7416 95.3552 7.7416C92.4794 7.7416 90.1334 8.80111 88.3171 10.9201C86.5008 13.0391 85.5927 15.9527 85.5927 19.661C85.5927 23.4449 86.463 26.3964 88.2036 28.5154C89.9442 30.6344 92.5362 31.6939 95.9796 31.6939C96.7364 31.6939 97.4742 31.5993 98.1932 31.4101C98.9121 31.2209 99.4986 30.9371 99.9527 30.5587V24.2017H93.8227V17.3906H107.331V34.4184C106.045 35.6671 104.323 36.7266 102.166 37.5969C100.047 38.4672 97.7012 38.9023 95.1282 38.9023Z" fill="white"/>
<path d="M120.67 38.2212V1.21431H143.827V8.25244H129.013V15.6879H141.614V22.6692H129.013V31.1831H144.395V38.2212H120.67Z" fill="white"/>
<path d="M175.783 18.015C175.783 24.2844 170.7 29.3668 164.431 29.3668C158.162 29.3668 153.079 24.2844 153.079 18.015C153.079 11.7456 158.162 6.66318 164.431 6.66318C170.7 6.66318 175.783 11.7456 175.783 18.015Z" fill="white"/>
<path d="M0 48.4106V41.7494H2.40091C2.87087 41.7494 3.29997 41.8141 3.6882 41.9435C4.07644 42.0661 4.38634 42.2772 4.61792 42.5769C4.84949 42.8766 4.96528 43.2921 4.96528 43.8233C4.96528 44.3137 4.8563 44.719 4.63835 45.0391C4.42721 45.3524 4.14114 45.5874 3.78015 45.7441L5.29221 48.4106H3.60647L2.32939 46.0097H1.50184V48.4106H0ZM1.50184 44.8144H2.27831C2.67335 44.8144 2.97304 44.7326 3.17737 44.5692C3.38852 44.3989 3.49409 44.1503 3.49409 43.8233C3.49409 43.4964 3.38852 43.2682 3.17737 43.1388C2.97304 43.0094 2.67335 42.9447 2.27831 42.9447H1.50184V44.8144Z" fill="#4D4D4D"/>
<path d="M6.39338 48.4106V41.7494H7.89522V48.4106H6.39338Z" fill="#4D4D4D"/>
<path d="M12.5364 48.5332C11.9303 48.5332 11.3786 48.4038 10.8813 48.145C10.391 47.8862 9.99931 47.5047 9.70644 47.0007C9.42037 46.4899 9.27734 45.8633 9.27734 45.1208C9.27734 44.3853 9.42378 43.7586 9.71665 43.241C10.0163 42.7165 10.4114 42.3181 10.9018 42.0456C11.3922 41.7664 11.9337 41.6268 12.5262 41.6268C13.0098 41.6268 13.4253 41.7153 13.7727 41.8924C14.12 42.0695 14.4027 42.2704 14.6206 42.4952L13.834 43.4555C13.6637 43.3057 13.4832 43.1797 13.2925 43.0775C13.1018 42.9754 12.8634 42.9243 12.5773 42.9243C12.0597 42.9243 11.6374 43.115 11.3104 43.4964C10.9835 43.8778 10.8201 44.4023 10.8201 45.0698C10.8201 45.7509 10.9767 46.2821 11.29 46.6636C11.6033 47.045 12.0699 47.2357 12.6897 47.2357C12.8259 47.2357 12.9587 47.2187 13.0881 47.1846C13.2176 47.1506 13.3231 47.0995 13.4049 47.0314V45.8871H12.3015V44.6611H14.733V47.7261C14.5014 47.9509 14.1915 48.1416 13.8033 48.2982C13.4219 48.4549 12.9996 48.5332 12.5364 48.5332Z" fill="#4D4D4D"/>
<path d="M16.2369 48.4106V41.7494H17.7387V44.3137H20.0374V41.7494H21.5495V48.4106H20.0374V45.6317H17.7387V48.4106H16.2369Z" fill="#4D4D4D"/>
<path d="M24.5463 48.4106V43.0162H22.7176V41.7494H27.8872V43.0162H26.0584V48.4106H24.5463Z" fill="#4D4D4D"/>
<path d="M30.8272 48.5332C30.3913 48.5332 29.9554 48.4515 29.5195 48.288C29.0904 48.1245 28.7056 47.8862 28.365 47.5728L29.2232 46.541C29.4616 46.7453 29.7273 46.9122 30.0201 47.0416C30.313 47.171 30.5957 47.2357 30.8681 47.2357C31.1814 47.2357 31.413 47.1778 31.5628 47.062C31.7195 46.9462 31.7978 46.7896 31.7978 46.592C31.7978 46.3809 31.7093 46.2277 31.5322 46.1323C31.3619 46.0301 31.1303 45.9177 30.8375 45.7951L29.969 45.4273C29.7443 45.332 29.5297 45.206 29.3254 45.0493C29.1211 44.8859 28.9542 44.6849 28.8248 44.4466C28.6954 44.2082 28.6307 43.9289 28.6307 43.6088C28.6307 43.241 28.7294 42.9072 28.927 42.6076C29.1313 42.3079 29.4105 42.0695 29.7647 41.8924C30.1257 41.7153 30.5378 41.6268 31.0009 41.6268C31.3823 41.6268 31.7638 41.7017 32.1452 41.8515C32.5266 42.0014 32.8604 42.2193 33.1464 42.5054L32.3802 43.4555C32.1622 43.2853 31.9443 43.1558 31.7263 43.0673C31.5084 42.972 31.2666 42.9243 31.0009 42.9243C30.7421 42.9243 30.5344 42.9788 30.3777 43.0877C30.2279 43.1899 30.1529 43.3363 30.1529 43.5271C30.1529 43.7314 30.2483 43.8846 30.439 43.9868C30.6365 44.089 30.8783 44.198 31.1644 44.3137L32.0226 44.6611C32.4244 44.8246 32.7446 45.0493 32.983 45.3354C33.2213 45.6215 33.3405 45.9995 33.3405 46.4694C33.3405 46.8372 33.2418 47.1778 33.0443 47.4911C32.8467 47.8044 32.5607 48.0564 32.1861 48.2471C31.8114 48.4379 31.3585 48.5332 30.8272 48.5332Z" fill="#4D4D4D"/>
<path d="M38.335 45.0391L38.1716 45.6521H39.5917L39.4384 45.0391C39.3499 44.7054 39.2579 44.3512 39.1626 43.9766C39.074 43.602 38.9855 43.241 38.8969 42.8936H38.8561C38.7743 43.2478 38.6892 43.6122 38.6007 43.9868C38.5189 44.3546 38.4304 44.7054 38.335 45.0391ZM35.9239 48.4106L38.0081 41.7494H39.8164L41.9006 48.4106H40.3068L39.8982 46.827H37.8651L37.4564 48.4106H35.9239Z" fill="#4D4D4D"/>
<path d="M42.7562 48.4106V41.7494H44.2989L46.0357 45.0596L46.6896 46.5307H46.7305C46.7032 46.1766 46.6658 45.7815 46.6181 45.3456C46.5704 44.9097 46.5466 44.4942 46.5466 44.0992V41.7494H47.9769V48.4106H46.4342L44.6974 45.0902L44.0435 43.6394H44.0026C44.0367 44.0072 44.0741 44.4023 44.115 44.8246C44.1627 45.2469 44.1865 45.6555 44.1865 46.0506V48.4106H42.7562Z" fill="#4D4D4D"/>
<path d="M49.6784 48.4106V41.7494H51.5582C52.2393 41.7494 52.8285 41.8652 53.3257 42.0967C53.8229 42.3283 54.2077 42.6893 54.4802 43.1797C54.7594 43.6633 54.8991 44.2865 54.8991 45.0493C54.8991 45.8122 54.7628 46.4422 54.4904 46.9394C54.218 47.4366 53.8365 47.8078 53.3461 48.053C52.8625 48.2914 52.2938 48.4106 51.64 48.4106H49.6784ZM51.1802 47.1948H51.4663C51.8477 47.1948 52.178 47.1267 52.4573 46.9905C52.7434 46.8543 52.9647 46.6295 53.1214 46.3162C53.278 46.0029 53.3563 45.5806 53.3563 45.0493C53.3563 44.5181 53.278 44.1026 53.1214 43.8029C52.9647 43.4964 52.7434 43.2819 52.4573 43.1593C52.178 43.0298 51.8477 42.9651 51.4663 42.9651H51.1802V47.1948Z" fill="#4D4D4D"/>
<path d="M60.0274 45.0391L59.8639 45.6521H61.2841L61.1308 45.0391C61.0423 44.7054 60.9503 44.3512 60.855 43.9766C60.7664 43.602 60.6779 43.241 60.5893 42.8936H60.5485C60.4667 43.2478 60.3816 43.6122 60.293 43.9868C60.2113 44.3546 60.1228 44.7054 60.0274 45.0391ZM57.6163 48.4106L59.7005 41.7494H61.5088L63.593 48.4106H61.9992L61.5906 46.827H59.5574L59.1488 48.4106H57.6163Z" fill="#4D4D4D"/>
<path d="M64.4486 48.4106V41.7494H65.9504V48.4106H64.4486Z" fill="#4D4D4D"/>
<path d="M67.6493 48.4106V41.7494H69.5291C70.2102 41.7494 70.7994 41.8652 71.2966 42.0967C71.7938 42.3283 72.1786 42.6893 72.4511 43.1797C72.7303 43.6633 72.8699 44.2865 72.8699 45.0493C72.8699 45.8122 72.7337 46.4422 72.4613 46.9394C72.1888 47.4366 71.8074 47.8078 71.317 48.053C70.8334 48.2914 70.2647 48.4106 69.6109 48.4106H67.6493ZM69.1511 47.1948H69.4372C69.8186 47.1948 70.1489 47.1267 70.4282 46.9905C70.7142 46.8543 70.9356 46.6295 71.0923 46.3162C71.2489 46.0029 71.3272 45.5806 71.3272 45.0493C71.3272 44.5181 71.2489 44.1026 71.0923 43.8029C70.9356 43.4964 70.7142 43.2819 70.4282 43.1593C70.1489 43.0298 69.8186 42.9651 69.4372 42.9651H69.1511V47.1948Z" fill="#4D4D4D"/>
<path d="M79.3775 48.5332C78.7714 48.5332 78.2197 48.4038 77.7225 48.145C77.2321 47.8862 76.8404 47.5047 76.5475 47.0007C76.2615 46.4899 76.1184 45.8633 76.1184 45.1208C76.1184 44.3853 76.2649 43.7586 76.5578 43.241C76.8575 42.7165 77.2525 42.3181 77.7429 42.0456C78.2333 41.7664 78.7748 41.6268 79.3673 41.6268C79.8509 41.6268 80.2664 41.7153 80.6138 41.8924C80.9611 42.0695 81.2438 42.2704 81.4617 42.4952L80.6751 43.4555C80.5048 43.3057 80.3243 43.1797 80.1336 43.0775C79.9429 42.9754 79.7045 42.9243 79.4184 42.9243C78.9008 42.9243 78.4785 43.115 78.1516 43.4964C77.8246 43.8778 77.6612 44.4023 77.6612 45.0698C77.6612 45.7509 77.8178 46.2821 78.1311 46.6636C78.4444 47.045 78.911 47.2357 79.5308 47.2357C79.667 47.2357 79.7998 47.2187 79.9293 47.1846C80.0587 47.1506 80.1642 47.0995 80.246 47.0314V45.8871H79.1426V44.6611H81.5741V47.7261C81.3426 47.9509 81.0326 48.1416 80.6444 48.2982C80.263 48.4549 79.8407 48.5332 79.3775 48.5332Z" fill="#4D4D4D"/>
<path d="M83.078 48.4106V41.7494H85.4789C85.9488 41.7494 86.3779 41.8141 86.7662 41.9435C87.1544 42.0661 87.4643 42.2772 87.6959 42.5769C87.9275 42.8766 88.0432 43.2921 88.0432 43.8233C88.0432 44.3137 87.9343 44.719 87.7163 45.0391C87.5052 45.3524 87.2191 45.5874 86.8581 45.7441L88.3702 48.4106H86.6844L85.4074 46.0097H84.5798V48.4106H83.078ZM84.5798 44.8144H85.3563C85.7513 44.8144 86.051 44.7326 86.2553 44.5692C86.4665 44.3989 86.5721 44.1503 86.5721 43.8233C86.5721 43.4964 86.4665 43.2682 86.2553 43.1388C86.051 43.0094 85.7513 42.9447 85.3563 42.9447H84.5798V44.8144Z" fill="#4D4D4D"/>
<path d="M92.1787 48.5332C91.5794 48.5332 91.0515 48.3936 90.5952 48.1143C90.1456 47.8351 89.7915 47.4366 89.5326 46.919C89.2806 46.3945 89.1546 45.7713 89.1546 45.0493C89.1546 44.3205 89.2806 43.7041 89.5326 43.2001C89.7915 42.6893 90.1456 42.3011 90.5952 42.0354C91.0515 41.763 91.5794 41.6268 92.1787 41.6268C92.7781 41.6268 93.3026 41.763 93.7521 42.0354C94.2085 42.3011 94.5626 42.6893 94.8146 43.2001C95.0735 43.711 95.2029 44.3274 95.2029 45.0493C95.2029 45.7713 95.0735 46.3945 94.8146 46.919C94.5626 47.4366 94.2085 47.8351 93.7521 48.1143C93.3026 48.3936 92.7781 48.5332 92.1787 48.5332ZM92.1787 47.2357C92.6351 47.2357 92.9961 47.0382 93.2617 46.6431C93.5273 46.2481 93.6602 45.7168 93.6602 45.0493C93.6602 44.3818 93.5273 43.8608 93.2617 43.4862C92.9961 43.1116 92.6351 42.9243 92.1787 42.9243C91.7224 42.9243 91.3614 43.1116 91.0958 43.4862C90.8301 43.8608 90.6973 44.3818 90.6973 45.0493C90.6973 45.7168 90.8301 46.2481 91.0958 46.6431C91.3614 47.0382 91.7224 47.2357 92.1787 47.2357Z" fill="#4D4D4D"/>
<path d="M99.2087 48.5332C98.3437 48.5332 97.6831 48.2778 97.2267 47.767C96.7704 47.2561 96.5422 46.4422 96.5422 45.3252V41.7494H98.0543V45.4784C98.0543 46.1323 98.153 46.5886 98.3505 46.8475C98.5481 47.1063 98.8341 47.2357 99.2087 47.2357C99.5834 47.2357 99.8728 47.1063 100.077 46.8475C100.281 46.5886 100.384 46.1323 100.384 45.4784V41.7494H101.834V45.3252C101.834 46.4422 101.61 47.2561 101.16 47.767C100.717 48.2778 100.067 48.5332 99.2087 48.5332Z" fill="#4D4D4D"/>
<path d="M103.505 48.4106V41.7494H105.794C106.284 41.7494 106.727 41.8175 107.122 41.9537C107.524 42.0831 107.844 42.3045 108.082 42.6178C108.321 42.9311 108.44 43.3568 108.44 43.8949C108.44 44.4125 108.321 44.8382 108.082 45.1719C107.844 45.5057 107.527 45.7543 107.132 45.9178C106.737 46.0744 106.305 46.1527 105.835 46.1527H105.007V48.4106H103.505ZM105.007 44.9574H105.743C106.56 44.9574 106.969 44.6032 106.969 43.8949C106.969 43.5475 106.86 43.3023 106.642 43.1593C106.424 43.0162 106.11 42.9447 105.702 42.9447H105.007V44.9574Z" fill="#4D4D4D"/>
<path d="M111.892 48.4106V41.7494H116.091V43.0162H113.394V44.5589H115.703V45.8258H113.394V48.4106H111.892Z" fill="#4D4D4D"/>
<path d="M119.985 48.5332C119.386 48.5332 118.858 48.3936 118.402 48.1143C117.952 47.8351 117.598 47.4366 117.339 46.919C117.087 46.3945 116.961 45.7713 116.961 45.0493C116.961 44.3205 117.087 43.7041 117.339 43.2001C117.598 42.6893 117.952 42.3011 118.402 42.0354C118.858 41.763 119.386 41.6268 119.985 41.6268C120.585 41.6268 121.109 41.763 121.558 42.0354C122.015 42.3011 122.369 42.6893 122.621 43.2001C122.88 43.711 123.009 44.3274 123.009 45.0493C123.009 45.7713 122.88 46.3945 122.621 46.919C122.369 47.4366 122.015 47.8351 121.558 48.1143C121.109 48.3936 120.585 48.5332 119.985 48.5332ZM119.985 47.2357C120.441 47.2357 120.802 47.0382 121.068 46.6431C121.334 46.2481 121.467 45.7168 121.467 45.0493C121.467 44.3818 121.334 43.8608 121.068 43.4862C120.802 43.1116 120.441 42.9243 119.985 42.9243C119.529 42.9243 119.168 43.1116 118.902 43.4862C118.637 43.8608 118.504 44.3818 118.504 45.0493C118.504 45.7168 118.637 46.2481 118.902 46.6431C119.168 47.0382 119.529 47.2357 119.985 47.2357Z" fill="#4D4D4D"/>
<path d="M124.389 48.4106V41.7494H126.79C127.26 41.7494 127.689 41.8141 128.078 41.9435C128.466 42.0661 128.776 42.2772 129.007 42.5769C129.239 42.8766 129.355 43.2921 129.355 43.8233C129.355 44.3137 129.246 44.719 129.028 45.0391C128.817 45.3524 128.531 45.5874 128.17 45.7441L129.682 48.4106H127.996L126.719 46.0097H125.891V48.4106H124.389ZM125.891 44.8144H126.668C127.063 44.8144 127.363 44.7326 127.567 44.5692C127.778 44.3989 127.884 44.1503 127.884 43.8233C127.884 43.4964 127.778 43.2682 127.567 43.1388C127.363 43.0094 127.063 42.9447 126.668 42.9447H125.891V44.8144Z" fill="#4D4D4D"/>
<path d="M133.564 48.4106V41.7494H137.733V43.0162H135.066V44.3546H137.334V45.6112H135.066V47.1437H137.835V48.4106H133.564Z" fill="#4D4D4D"/>
<path d="M139.289 48.4106V41.7494H141.169C141.85 41.7494 142.44 41.8652 142.937 42.0967C143.434 42.3283 143.819 42.6893 144.091 43.1797C144.37 43.6633 144.51 44.2865 144.51 45.0493C144.51 45.8122 144.374 46.4422 144.101 46.9394C143.829 47.4366 143.448 47.8078 142.957 48.053C142.474 48.2914 141.905 48.4106 141.251 48.4106H139.289ZM140.791 47.1948H141.077C141.459 47.1948 141.789 47.1267 142.068 46.9905C142.354 46.8543 142.576 46.6295 142.732 46.3162C142.889 46.0029 142.967 45.5806 142.967 45.0493C142.967 44.5181 142.889 44.1026 142.732 43.8029C142.576 43.4964 142.354 43.2819 142.068 43.1593C141.789 43.0298 141.459 42.9651 141.077 42.9651H140.791V47.1948Z" fill="#4D4D4D"/>
<path d="M148.528 48.5332C147.663 48.5332 147.002 48.2778 146.546 47.767C146.09 47.2561 145.861 46.4422 145.861 45.3252V41.7494H147.373V45.4784C147.373 46.1323 147.472 46.5886 147.67 46.8475C147.867 47.1063 148.153 47.2357 148.528 47.2357C148.903 47.2357 149.192 47.1063 149.396 46.8475C149.601 46.5886 149.703 46.1323 149.703 45.4784V41.7494H151.154V45.3252C151.154 46.4422 150.929 47.2561 150.479 47.767C150.037 48.2778 149.386 48.5332 148.528 48.5332Z" fill="#4D4D4D"/>
<path d="M155.603 48.5332C155.045 48.5332 154.531 48.4038 154.061 48.145C153.591 47.8862 153.213 47.5047 152.927 47.0007C152.647 46.4899 152.508 45.8633 152.508 45.1208C152.508 44.3853 152.651 43.7586 152.937 43.241C153.23 42.7165 153.615 42.3181 154.091 42.0456C154.575 41.7664 155.096 41.6268 155.654 41.6268C156.084 41.6268 156.468 41.7153 156.809 41.8924C157.149 42.0627 157.432 42.2636 157.657 42.4952L156.86 43.4555C156.69 43.2989 156.509 43.1729 156.319 43.0775C156.135 42.9754 155.923 42.9243 155.685 42.9243C155.385 42.9243 155.11 43.0094 154.858 43.1797C154.612 43.35 154.415 43.5952 154.265 43.9153C154.122 44.2354 154.05 44.6202 154.05 45.0698C154.05 45.7509 154.197 46.2821 154.49 46.6636C154.783 47.045 155.174 47.2357 155.665 47.2357C155.937 47.2357 156.179 47.1744 156.39 47.0518C156.608 46.9292 156.799 46.7828 156.962 46.6125L157.759 47.5524C157.201 48.2063 156.482 48.5332 155.603 48.5332Z" fill="#4D4D4D"/>
<path d="M160.462 45.0391L160.298 45.6521H161.718L161.565 45.0391C161.477 44.7054 161.385 44.3512 161.289 43.9766C161.201 43.602 161.112 43.241 161.024 42.8936H160.983C160.901 43.2478 160.816 43.6122 160.727 43.9868C160.646 44.3546 160.557 44.7054 160.462 45.0391ZM158.051 48.4106L160.135 41.7494H161.943L164.027 48.4106H162.433L162.025 46.827H159.992L159.583 48.4106H158.051Z" fill="#4D4D4D"/>
<path d="M165.432 48.4106V43.0162H163.603V41.7494H168.773V43.0162H166.944V48.4106H165.432Z" fill="#4D4D4D"/>
<path d="M169.939 48.4106V41.7494H171.441V48.4106H169.939Z" fill="#4D4D4D"/>
<path d="M175.847 48.5332C175.248 48.5332 174.72 48.3936 174.264 48.1143C173.814 47.8351 173.46 47.4366 173.201 46.919C172.949 46.3945 172.823 45.7713 172.823 45.0493C172.823 44.3205 172.949 43.7041 173.201 43.2001C173.46 42.6893 173.814 42.3011 174.264 42.0354C174.72 41.763 175.248 41.6268 175.847 41.6268C176.447 41.6268 176.971 41.763 177.421 42.0354C177.877 42.3011 178.231 42.6893 178.483 43.2001C178.742 43.711 178.871 44.3274 178.871 45.0493C178.871 45.7713 178.742 46.3945 178.483 46.919C178.231 47.4366 177.877 47.8351 177.421 48.1143C176.971 48.3936 176.447 48.5332 175.847 48.5332ZM175.847 47.2357C176.304 47.2357 176.665 47.0382 176.93 46.6431C177.196 46.2481 177.329 45.7168 177.329 45.0493C177.329 44.3818 177.196 43.8608 176.93 43.4862C176.665 43.1116 176.304 42.9243 175.847 42.9243C175.391 42.9243 175.03 43.1116 174.764 43.4862C174.499 43.8608 174.366 44.3818 174.366 45.0493C174.366 45.7168 174.499 46.2481 174.764 46.6431C175.03 47.0382 175.391 47.2357 175.847 47.2357Z" fill="#4D4D4D"/>
<path d="M180.252 48.4106V41.7494H181.794L183.531 45.0596L184.185 46.5307H184.226C184.199 46.1766 184.161 45.7815 184.114 45.3456C184.066 44.9097 184.042 44.4942 184.042 44.0992V41.7494H185.472V48.4106H183.93L182.193 45.0902L181.539 43.6394H181.498C181.532 44.0072 181.57 44.4023 181.61 44.8246C181.658 45.2469 181.682 45.6555 181.682 46.0506V48.4106H180.252Z" fill="#4D4D4D"/>
</svg>
