<svg width="186" height="48" viewBox="0 0 186 48" fill="none" xmlns="http://www.w3.org/2000/svg">
<path d="M0 37.688V0.68111H13.3384C15.9493 0.68111 18.3332 1.04058 20.49 1.75953C22.6469 2.44064 24.3686 3.61366 25.6551 5.27859C26.9416 6.94353 27.5849 9.25173 27.5849 12.2032C27.5849 14.9276 26.9795 17.1791 25.7686 18.9575C24.5956 20.6981 23.0063 22.0036 21.0009 22.8739L29.4012 37.688H20.0359L12.9411 24.3496H8.34358V37.688H0ZM8.34358 17.7088H12.6573C14.852 17.7088 16.5169 17.2548 17.6521 16.3466C18.8251 15.4006 19.4116 14.0195 19.4116 12.2032C19.4116 10.3869 18.8251 9.11929 17.6521 8.40034C16.5169 7.68139 14.852 7.32192 12.6573 7.32192H8.34358V17.7088Z" fill="#4C3DFE"/>
<path d="M49.2101 18.9575L48.302 22.3631H56.1915L55.3401 18.9575C54.8482 17.1034 54.3373 15.1357 53.8076 13.0546C53.3157 10.9734 52.8238 8.96793 52.3318 7.03812H52.1048C51.6507 9.00577 51.1777 11.0302 50.6858 13.1113C50.2318 15.1547 49.7399 17.1034 49.2101 18.9575ZM35.815 37.688L47.3938 0.68111H57.4402L69.019 37.688H60.1646L57.8942 28.8904H46.5992L44.3288 37.688H35.815Z" fill="#4C3DFE"/>
<path d="M95.1282 38.3691C91.7605 38.3691 88.6955 37.6502 85.9332 36.2123C83.2088 34.7744 81.033 32.6554 79.4059 29.8553C77.8167 27.0173 77.022 23.5361 77.022 19.4116C77.022 15.3249 77.8356 11.8437 79.4627 8.96793C81.1276 6.0543 83.3223 3.8407 86.0467 2.32712C88.7712 0.775707 91.7794 0 95.0714 0C97.758 0 100.066 0.491912 101.996 1.47574C103.926 2.45956 105.496 3.57582 106.707 4.82452L102.337 10.1599C101.391 9.3274 100.388 8.62738 99.3283 8.05979C98.2688 7.4922 96.9445 7.2084 95.3552 7.2084C92.4794 7.2084 90.1334 8.2679 88.3171 10.3869C86.5008 12.5059 85.5927 15.4195 85.5927 19.1278C85.5927 22.9117 86.463 25.8632 88.2036 27.9822C89.9442 30.1012 92.5362 31.1607 95.9796 31.1607C96.7364 31.1607 97.4742 31.0661 98.1932 30.8769C98.9121 30.6877 99.4986 30.4039 99.9527 30.0255V23.6685H93.8227V16.8574H107.331V33.8852C106.045 35.1339 104.323 36.1934 102.166 37.0637C100.047 37.934 97.7012 38.3691 95.1282 38.3691Z" fill="#4C3DFE"/>
<path d="M120.67 37.688V0.68111H143.827V7.71923H129.013V15.1547H141.614V22.136H129.013V30.6499H144.395V37.688H120.67Z" fill="#4C3DFE"/>
<path d="M175.783 17.4818C175.783 23.7512 170.7 28.8336 164.431 28.8336C158.162 28.8336 153.079 23.7512 153.079 17.4818C153.079 11.2124 158.162 6.12998 164.431 6.12998C170.7 6.12998 175.783 11.2124 175.783 17.4818Z" fill="#4C3DFE"/>
<path d="M0 47.8774V41.2162H2.40091C2.87087 41.2162 3.29997 41.2809 3.6882 41.4103C4.07644 41.5329 4.38634 41.744 4.61792 42.0437C4.84949 42.3434 4.96528 42.7589 4.96528 43.2901C4.96528 43.7805 4.8563 44.1858 4.63835 44.5059C4.42721 44.8192 4.14114 45.0542 3.78015 45.2109L5.29221 47.8774H3.60647L2.32939 45.4765H1.50184V47.8774H0ZM1.50184 44.2811H2.27831C2.67335 44.2811 2.97304 44.1994 3.17737 44.0359C3.38852 43.8657 3.49409 43.6171 3.49409 43.2901C3.49409 42.9632 3.38852 42.735 3.17737 42.6056C2.97304 42.4762 2.67335 42.4115 2.27831 42.4115H1.50184V44.2811Z" fill="#4D4D4D"/>
<path d="M6.39338 47.8774V41.2162H7.89522V47.8774H6.39338Z" fill="#4D4D4D"/>
<path d="M12.5364 48C11.9303 48 11.3786 47.8706 10.8813 47.6118C10.391 47.353 9.99931 46.9715 9.70644 46.4675C9.42037 45.9567 9.27734 45.3301 9.27734 44.5876C9.27734 43.8521 9.42378 43.2254 9.71665 42.7078C10.0163 42.1833 10.4114 41.7849 10.9018 41.5124C11.3922 41.2332 11.9337 41.0936 12.5262 41.0936C13.0098 41.0936 13.4253 41.1821 13.7727 41.3592C14.12 41.5363 14.4027 41.7372 14.6206 41.962L13.834 42.9223C13.6637 42.7725 13.4832 42.6465 13.2925 42.5443C13.1018 42.4422 12.8634 42.3911 12.5773 42.3911C12.0597 42.3911 11.6374 42.5818 11.3104 42.9632C10.9835 43.3446 10.8201 43.8691 10.8201 44.5366C10.8201 45.2177 10.9767 45.7489 11.29 46.1304C11.6033 46.5118 12.0699 46.7025 12.6897 46.7025C12.8259 46.7025 12.9587 46.6855 13.0881 46.6514C13.2176 46.6174 13.3231 46.5663 13.4049 46.4982V45.3539H12.3015V44.1279H14.733V47.1929C14.5014 47.4177 14.1915 47.6084 13.8033 47.765C13.4219 47.9217 12.9996 48 12.5364 48Z" fill="#4D4D4D"/>
<path d="M16.2369 47.8774V41.2162H17.7387V43.7805H20.0374V41.2162H21.5495V47.8774H20.0374V45.0985H17.7387V47.8774H16.2369Z" fill="#4D4D4D"/>
<path d="M24.5463 47.8774V42.483H22.7176V41.2162H27.8872V42.483H26.0584V47.8774H24.5463Z" fill="#4D4D4D"/>
<path d="M30.8272 48C30.3913 48 29.9554 47.9183 29.5195 47.7548C29.0904 47.5913 28.7056 47.3529 28.365 47.0396L29.2232 46.0078C29.4616 46.2121 29.7273 46.379 30.0201 46.5084C30.313 46.6378 30.5957 46.7025 30.8681 46.7025C31.1814 46.7025 31.413 46.6446 31.5628 46.5288C31.7195 46.413 31.7978 46.2564 31.7978 46.0588C31.7978 45.8477 31.7093 45.6945 31.5322 45.5991C31.3619 45.4969 31.1303 45.3845 30.8375 45.2619L29.969 44.8941C29.7443 44.7988 29.5297 44.6728 29.3254 44.5161C29.1211 44.3527 28.9542 44.1517 28.8248 43.9133C28.6954 43.675 28.6307 43.3957 28.6307 43.0756C28.6307 42.7078 28.7294 42.374 28.927 42.0744C29.1313 41.7747 29.4105 41.5363 29.7647 41.3592C30.1257 41.1821 30.5378 41.0936 31.0009 41.0936C31.3823 41.0936 31.7638 41.1685 32.1452 41.3183C32.5266 41.4682 32.8604 41.6861 33.1464 41.9722L32.3802 42.9223C32.1622 42.7521 31.9443 42.6226 31.7263 42.5341C31.5084 42.4387 31.2666 42.3911 31.0009 42.3911C30.7421 42.3911 30.5344 42.4456 30.3777 42.5545C30.2279 42.6567 30.1529 42.8031 30.1529 42.9939C30.1529 43.1982 30.2483 43.3514 30.439 43.4536C30.6365 43.5558 30.8783 43.6647 31.1644 43.7805L32.0226 44.1279C32.4244 44.2914 32.7446 44.5161 32.983 44.8022C33.2213 45.0883 33.3405 45.4663 33.3405 45.9362C33.3405 46.304 33.2418 46.6446 33.0443 46.9579C32.8467 47.2712 32.5607 47.5232 32.1861 47.7139C31.8114 47.9046 31.3585 48 30.8272 48Z" fill="#4D4D4D"/>
<path d="M38.335 44.5059L38.1716 45.1189H39.5917L39.4384 44.5059C39.3499 44.1722 39.2579 43.818 39.1626 43.4434C39.074 43.0688 38.9855 42.7078 38.8969 42.3604H38.8561C38.7743 42.7146 38.6892 43.079 38.6007 43.4536C38.5189 43.8214 38.4304 44.1722 38.335 44.5059ZM35.9239 47.8774L38.0081 41.2162H39.8164L41.9006 47.8774H40.3068L39.8982 46.2938H37.8651L37.4564 47.8774H35.9239Z" fill="#4D4D4D"/>
<path d="M42.7562 47.8774V41.2162H44.2989L46.0357 44.5263L46.6896 45.9975H46.7305C46.7032 45.6434 46.6658 45.2483 46.6181 44.8124C46.5704 44.3765 46.5466 43.961 46.5466 43.566V41.2162H47.9769V47.8774H46.4342L44.6974 44.557L44.0435 43.1062H44.0026C44.0367 43.474 44.0741 43.8691 44.115 44.2914C44.1627 44.7137 44.1865 45.1223 44.1865 45.5174V47.8774H42.7562Z" fill="#4D4D4D"/>
<path d="M49.6784 47.8774V41.2162H51.5582C52.2393 41.2162 52.8285 41.332 53.3257 41.5635C53.8229 41.7951 54.2077 42.1561 54.4802 42.6465C54.7594 43.1301 54.8991 43.7533 54.8991 44.5161C54.8991 45.279 54.7628 45.909 54.4904 46.4062C54.218 46.9034 53.8365 47.2746 53.3461 47.5198C52.8625 47.7582 52.2938 47.8774 51.64 47.8774H49.6784ZM51.1802 46.6616H51.4663C51.8477 46.6616 52.178 46.5935 52.4573 46.4573C52.7434 46.3211 52.9647 46.0963 53.1214 45.783C53.278 45.4697 53.3563 45.0474 53.3563 44.5161C53.3563 43.9849 53.278 43.5694 53.1214 43.2697C52.9647 42.9632 52.7434 42.7487 52.4573 42.6261C52.178 42.4966 51.8477 42.4319 51.4663 42.4319H51.1802V46.6616Z" fill="#4D4D4D"/>
<path d="M60.0274 44.5059L59.8639 45.1189H61.2841L61.1308 44.5059C61.0423 44.1722 60.9503 43.818 60.855 43.4434C60.7664 43.0688 60.6779 42.7078 60.5893 42.3604H60.5485C60.4667 42.7146 60.3816 43.079 60.293 43.4536C60.2113 43.8214 60.1228 44.1722 60.0274 44.5059ZM57.6163 47.8774L59.7005 41.2162H61.5088L63.593 47.8774H61.9992L61.5906 46.2938H59.5574L59.1488 47.8774H57.6163Z" fill="#4D4D4D"/>
<path d="M64.4486 47.8774V41.2162H65.9504V47.8774H64.4486Z" fill="#4D4D4D"/>
<path d="M67.6493 47.8774V41.2162H69.5291C70.2102 41.2162 70.7994 41.332 71.2966 41.5635C71.7938 41.7951 72.1786 42.1561 72.4511 42.6465C72.7303 43.1301 72.8699 43.7533 72.8699 44.5161C72.8699 45.279 72.7337 45.909 72.4613 46.4062C72.1888 46.9034 71.8074 47.2746 71.317 47.5198C70.8334 47.7582 70.2647 47.8774 69.6109 47.8774H67.6493ZM69.1511 46.6616H69.4372C69.8186 46.6616 70.1489 46.5935 70.4282 46.4573C70.7142 46.3211 70.9356 46.0963 71.0923 45.783C71.2489 45.4697 71.3272 45.0474 71.3272 44.5161C71.3272 43.9849 71.2489 43.5694 71.0923 43.2697C70.9356 42.9632 70.7142 42.7487 70.4282 42.6261C70.1489 42.4966 69.8186 42.4319 69.4372 42.4319H69.1511V46.6616Z" fill="#4D4D4D"/>
<path d="M79.3775 48C78.7714 48 78.2197 47.8706 77.7225 47.6118C77.2321 47.353 76.8404 46.9715 76.5475 46.4675C76.2615 45.9567 76.1184 45.3301 76.1184 44.5876C76.1184 43.8521 76.2649 43.2254 76.5578 42.7078C76.8575 42.1833 77.2525 41.7849 77.7429 41.5124C78.2333 41.2332 78.7748 41.0936 79.3673 41.0936C79.8509 41.0936 80.2664 41.1821 80.6138 41.3592C80.9611 41.5363 81.2438 41.7372 81.4617 41.962L80.6751 42.9223C80.5048 42.7725 80.3243 42.6465 80.1336 42.5443C79.9429 42.4422 79.7045 42.3911 79.4184 42.3911C78.9008 42.3911 78.4785 42.5818 78.1516 42.9632C77.8246 43.3446 77.6612 43.8691 77.6612 44.5366C77.6612 45.2177 77.8178 45.7489 78.1311 46.1304C78.4444 46.5118 78.911 46.7025 79.5308 46.7025C79.667 46.7025 79.7998 46.6855 79.9293 46.6514C80.0587 46.6174 80.1642 46.5663 80.246 46.4982V45.3539H79.1426V44.1279H81.5741V47.1929C81.3426 47.4177 81.0326 47.6084 80.6444 47.765C80.263 47.9217 79.8407 48 79.3775 48Z" fill="#4D4D4D"/>
<path d="M83.078 47.8774V41.2162H85.4789C85.9488 41.2162 86.3779 41.2809 86.7662 41.4103C87.1544 41.5329 87.4643 41.744 87.6959 42.0437C87.9275 42.3434 88.0432 42.7589 88.0432 43.2901C88.0432 43.7805 87.9343 44.1858 87.7163 44.5059C87.5052 44.8192 87.2191 45.0542 86.8581 45.2109L88.3702 47.8774H86.6844L85.4074 45.4765H84.5798V47.8774H83.078ZM84.5798 44.2811H85.3563C85.7513 44.2811 86.051 44.1994 86.2553 44.0359C86.4665 43.8657 86.5721 43.6171 86.5721 43.2901C86.5721 42.9632 86.4665 42.735 86.2553 42.6056C86.051 42.4762 85.7513 42.4115 85.3563 42.4115H84.5798V44.2811Z" fill="#4D4D4D"/>
<path d="M92.1787 48C91.5794 48 91.0515 47.8604 90.5952 47.5811C90.1456 47.3019 89.7915 46.9034 89.5326 46.3858C89.2806 45.8613 89.1546 45.2381 89.1546 44.5161C89.1546 43.7873 89.2806 43.1709 89.5326 42.6669C89.7915 42.1561 90.1456 41.7679 90.5952 41.5022C91.0515 41.2298 91.5794 41.0936 92.1787 41.0936C92.7781 41.0936 93.3026 41.2298 93.7521 41.5022C94.2085 41.7679 94.5626 42.1561 94.8146 42.6669C95.0735 43.1777 95.2029 43.7942 95.2029 44.5161C95.2029 45.2381 95.0735 45.8613 94.8146 46.3858C94.5626 46.9034 94.2085 47.3019 93.7521 47.5811C93.3026 47.8604 92.7781 48 92.1787 48ZM92.1787 46.7025C92.6351 46.7025 92.9961 46.505 93.2617 46.1099C93.5273 45.7149 93.6602 45.1836 93.6602 44.5161C93.6602 43.8486 93.5273 43.3276 93.2617 42.953C92.9961 42.5784 92.6351 42.3911 92.1787 42.3911C91.7224 42.3911 91.3614 42.5784 91.0958 42.953C90.8301 43.3276 90.6973 43.8486 90.6973 44.5161C90.6973 45.1836 90.8301 45.7149 91.0958 46.1099C91.3614 46.505 91.7224 46.7025 92.1787 46.7025Z" fill="#4D4D4D"/>
<path d="M99.2087 48C98.3437 48 97.6831 47.7446 97.2267 47.2338C96.7704 46.7229 96.5422 45.909 96.5422 44.792V41.2162H98.0543V44.9452C98.0543 45.5991 98.153 46.0554 98.3505 46.3143C98.5481 46.5731 98.8341 46.7025 99.2087 46.7025C99.5834 46.7025 99.8728 46.5731 100.077 46.3143C100.281 46.0554 100.384 45.5991 100.384 44.9452V41.2162H101.834V44.792C101.834 45.909 101.61 46.7229 101.16 47.2338C100.717 47.7446 100.067 48 99.2087 48Z" fill="#4D4D4D"/>
<path d="M103.505 47.8774V41.2162H105.794C106.284 41.2162 106.727 41.2843 107.122 41.4205C107.524 41.5499 107.844 41.7713 108.082 42.0846C108.321 42.3979 108.44 42.8236 108.44 43.3617C108.44 43.8793 108.321 44.305 108.082 44.6387C107.844 44.9725 107.527 45.2211 107.132 45.3845C106.737 45.5412 106.305 45.6195 105.835 45.6195H105.007V47.8774H103.505ZM105.007 44.4242H105.743C106.56 44.4242 106.969 44.07 106.969 43.3617C106.969 43.0143 106.86 42.7691 106.642 42.6261C106.424 42.483 106.11 42.4115 105.702 42.4115H105.007V44.4242Z" fill="#4D4D4D"/>
<path d="M111.892 47.8774V41.2162H116.091V42.483H113.394V44.0257H115.703V45.2926H113.394V47.8774H111.892Z" fill="#4D4D4D"/>
<path d="M119.985 48C119.386 48 118.858 47.8604 118.402 47.5811C117.952 47.3019 117.598 46.9034 117.339 46.3858C117.087 45.8613 116.961 45.2381 116.961 44.5161C116.961 43.7873 117.087 43.1709 117.339 42.6669C117.598 42.1561 117.952 41.7679 118.402 41.5022C118.858 41.2298 119.386 41.0936 119.985 41.0936C120.585 41.0936 121.109 41.2298 121.558 41.5022C122.015 41.7679 122.369 42.1561 122.621 42.6669C122.88 43.1777 123.009 43.7942 123.009 44.5161C123.009 45.2381 122.88 45.8613 122.621 46.3858C122.369 46.9034 122.015 47.3019 121.558 47.5811C121.109 47.8604 120.585 48 119.985 48ZM119.985 46.7025C120.441 46.7025 120.802 46.505 121.068 46.1099C121.334 45.7149 121.467 45.1836 121.467 44.5161C121.467 43.8486 121.334 43.3276 121.068 42.953C120.802 42.5784 120.441 42.3911 119.985 42.3911C119.529 42.3911 119.168 42.5784 118.902 42.953C118.637 43.3276 118.504 43.8486 118.504 44.5161C118.504 45.1836 118.637 45.7149 118.902 46.1099C119.168 46.505 119.529 46.7025 119.985 46.7025Z" fill="#4D4D4D"/>
<path d="M124.389 47.8774V41.2162H126.79C127.26 41.2162 127.689 41.2809 128.078 41.4103C128.466 41.5329 128.776 41.744 129.007 42.0437C129.239 42.3434 129.355 42.7589 129.355 43.2901C129.355 43.7805 129.246 44.1858 129.028 44.5059C128.817 44.8192 128.531 45.0542 128.17 45.2109L129.682 47.8774H127.996L126.719 45.4765H125.891V47.8774H124.389ZM125.891 44.2811H126.668C127.063 44.2811 127.363 44.1994 127.567 44.0359C127.778 43.8657 127.884 43.6171 127.884 43.2901C127.884 42.9632 127.778 42.735 127.567 42.6056C127.363 42.4762 127.063 42.4115 126.668 42.4115H125.891V44.2811Z" fill="#4D4D4D"/>
<path d="M133.564 47.8774V41.2162H137.733V42.483H135.066V43.8214H137.334V45.078H135.066V46.6105H137.835V47.8774H133.564Z" fill="#4D4D4D"/>
<path d="M139.289 47.8774V41.2162H141.169C141.85 41.2162 142.44 41.332 142.937 41.5635C143.434 41.7951 143.819 42.1561 144.091 42.6465C144.37 43.1301 144.51 43.7533 144.51 44.5161C144.51 45.279 144.374 45.909 144.101 46.4062C143.829 46.9034 143.448 47.2746 142.957 47.5198C142.474 47.7582 141.905 47.8774 141.251 47.8774H139.289ZM140.791 46.6616H141.077C141.459 46.6616 141.789 46.5935 142.068 46.4573C142.354 46.3211 142.576 46.0963 142.732 45.783C142.889 45.4697 142.967 45.0474 142.967 44.5161C142.967 43.9849 142.889 43.5694 142.732 43.2697C142.576 42.9632 142.354 42.7487 142.068 42.6261C141.789 42.4966 141.459 42.4319 141.077 42.4319H140.791V46.6616Z" fill="#4D4D4D"/>
<path d="M148.528 48C147.663 48 147.002 47.7446 146.546 47.2338C146.09 46.7229 145.861 45.909 145.861 44.792V41.2162H147.373V44.9452C147.373 45.5991 147.472 46.0554 147.67 46.3143C147.867 46.5731 148.153 46.7025 148.528 46.7025C148.903 46.7025 149.192 46.5731 149.396 46.3143C149.601 46.0554 149.703 45.5991 149.703 44.9452V41.2162H151.154V44.792C151.154 45.909 150.929 46.7229 150.479 47.2338C150.037 47.7446 149.386 48 148.528 48Z" fill="#4D4D4D"/>
<path d="M155.603 48C155.045 48 154.531 47.8706 154.061 47.6118C153.591 47.353 153.213 46.9715 152.927 46.4675C152.647 45.9567 152.508 45.3301 152.508 44.5876C152.508 43.8521 152.651 43.2254 152.937 42.7078C153.23 42.1833 153.615 41.7849 154.091 41.5124C154.575 41.2332 155.096 41.0936 155.654 41.0936C156.084 41.0936 156.468 41.1821 156.809 41.3592C157.149 41.5295 157.432 41.7304 157.657 41.962L156.86 42.9223C156.69 42.7657 156.509 42.6397 156.319 42.5443C156.135 42.4422 155.923 42.3911 155.685 42.3911C155.385 42.3911 155.11 42.4762 154.858 42.6465C154.612 42.8168 154.415 43.062 154.265 43.3821C154.122 43.7022 154.05 44.087 154.05 44.5366C154.05 45.2177 154.197 45.7489 154.49 46.1304C154.783 46.5118 155.174 46.7025 155.665 46.7025C155.937 46.7025 156.179 46.6412 156.39 46.5186C156.608 46.396 156.799 46.2496 156.962 46.0793L157.759 47.0192C157.201 47.6731 156.482 48 155.603 48Z" fill="#4D4D4D"/>
<path d="M160.462 44.5059L160.298 45.1189H161.718L161.565 44.5059C161.477 44.1722 161.385 43.818 161.289 43.4434C161.201 43.0688 161.112 42.7078 161.024 42.3604H160.983C160.901 42.7146 160.816 43.079 160.727 43.4536C160.646 43.8214 160.557 44.1722 160.462 44.5059ZM158.051 47.8774L160.135 41.2162H161.943L164.027 47.8774H162.433L162.025 46.2938H159.992L159.583 47.8774H158.051Z" fill="#4D4D4D"/>
<path d="M165.432 47.8774V42.483H163.603V41.2162H168.773V42.483H166.944V47.8774H165.432Z" fill="#4D4D4D"/>
<path d="M169.939 47.8774V41.2162H171.441V47.8774H169.939Z" fill="#4D4D4D"/>
<path d="M175.847 48C175.248 48 174.72 47.8604 174.264 47.5811C173.814 47.3019 173.46 46.9034 173.201 46.3858C172.949 45.8613 172.823 45.2381 172.823 44.5161C172.823 43.7873 172.949 43.1709 173.201 42.6669C173.46 42.1561 173.814 41.7679 174.264 41.5022C174.72 41.2298 175.248 41.0936 175.847 41.0936C176.447 41.0936 176.971 41.2298 177.421 41.5022C177.877 41.7679 178.231 42.1561 178.483 42.6669C178.742 43.1777 178.871 43.7942 178.871 44.5161C178.871 45.2381 178.742 45.8613 178.483 46.3858C178.231 46.9034 177.877 47.3019 177.421 47.5811C176.971 47.8604 176.447 48 175.847 48ZM175.847 46.7025C176.304 46.7025 176.665 46.505 176.93 46.1099C177.196 45.7149 177.329 45.1836 177.329 44.5161C177.329 43.8486 177.196 43.3276 176.93 42.953C176.665 42.5784 176.304 42.3911 175.847 42.3911C175.391 42.3911 175.03 42.5784 174.764 42.953C174.499 43.3276 174.366 43.8486 174.366 44.5161C174.366 45.1836 174.499 45.7149 174.764 46.1099C175.03 46.505 175.391 46.7025 175.847 46.7025Z" fill="#4D4D4D"/>
<path d="M180.252 47.8774V41.2162H181.794L183.531 44.5263L184.185 45.9975H184.226C184.199 45.6434 184.161 45.2483 184.114 44.8124C184.066 44.3765 184.042 43.961 184.042 43.566V41.2162H185.472V47.8774H183.93L182.193 44.557L181.539 43.1062H181.498C181.532 43.474 181.57 43.8691 181.61 44.2914C181.658 44.7137 181.682 45.1223 181.682 45.5174V47.8774H180.252Z" fill="#4D4D4D"/>
</svg>
